<svg width="24" height="26" viewBox="0 0 24 26" fill="none" xmlns="http://www.w3.org/2000/svg">
<path fill-rule="evenodd" clip-rule="evenodd" d="M8.29175 0.458252C8.775 0.458252 9.16675 0.850003 9.16675 1.33325V2.80396C9.94752 2.79159 10.8151 2.79159 11.7788 2.79159H11.8046C12.7684 2.79159 13.636 2.79159 14.4167 2.80396V1.33325C14.4167 0.850003 14.8085 0.458252 15.2917 0.458252C15.775 0.458252 16.1667 0.850003 16.1667 1.33325V2.86576C17.9307 2.97635 19.2858 3.26216 20.4015 4.07276C20.971 4.48653 21.4718 4.98736 21.8856 5.55686C22.8211 6.84446 23.0576 8.45094 23.1325 10.6366C23.1667 11.6367 23.1667 12.8003 23.1667 14.1537V14.1794C23.1667 15.5329 23.1667 16.6965 23.1325 17.6965C23.0576 19.8822 22.8211 21.4887 21.8856 22.7763C21.4718 23.3458 20.971 23.8466 20.4015 24.2604C19.1139 25.1959 17.5074 25.4324 15.3217 25.5073C14.3216 25.5416 13.1579 25.5416 11.8043 25.5416H11.7389C9.59632 25.5416 7.91679 25.5416 6.5843 25.3972C5.22451 25.2499 4.12273 24.9439 3.18202 24.2604C2.61252 23.8466 2.11169 23.3458 1.69793 22.7763C1.01446 21.8356 0.708422 20.7338 0.561098 19.374C0.416731 18.0415 0.416739 16.362 0.416748 14.2194L0.416748 14.1537C0.416748 12.8003 0.416748 11.6367 0.451011 10.6366C0.525896 8.45094 0.762427 6.84446 1.69793 5.55686C2.11169 4.98736 2.61252 4.48653 3.18202 4.07276C4.29773 3.26216 5.65284 2.97635 7.41675 2.86576V1.33325C7.41675 0.850003 7.8085 0.458252 8.29175 0.458252ZM7.41675 4.62004C5.82769 4.72933 4.91049 4.98008 4.21065 5.48854C3.78971 5.79437 3.41953 6.16455 3.11371 6.58548C2.60524 7.28532 2.35449 8.20252 2.24521 9.79159H21.3383C21.229 8.20252 20.9783 7.28532 20.4698 6.58548C20.164 6.16455 19.7938 5.79437 19.3728 5.48854C18.673 4.98008 17.7558 4.72933 16.1667 4.62004V4.83325C16.1667 5.3165 15.775 5.70825 15.2917 5.70825C14.8085 5.70825 14.4167 5.3165 14.4167 4.83325V4.55417C13.6472 4.54164 12.7806 4.54159 11.7917 4.54159C10.8029 4.54159 9.93626 4.54164 9.16675 4.55417V4.83325C9.16675 5.3165 8.775 5.70825 8.29175 5.70825C7.8085 5.70825 7.41675 5.3165 7.41675 4.83325V4.62004ZM21.4042 11.5416H2.17933C2.16681 12.3111 2.16675 13.1778 2.16675 14.1666C2.16675 16.3734 2.16795 17.9583 2.30092 19.1855C2.43211 20.3964 2.6831 21.155 3.11371 21.7477C3.41953 22.1686 3.78971 22.5388 4.21065 22.8446C4.80332 23.2752 5.5619 23.5262 6.7728 23.6574C8.00007 23.7904 9.58491 23.7916 11.7917 23.7916C12.7815 23.7916 13.6488 23.7915 14.4189 23.779C14.424 23.2252 14.4412 22.8175 14.4993 22.4505C14.954 19.5801 17.2052 17.3288 20.0757 16.8742C20.4427 16.816 20.8504 16.7988 21.4041 16.7937C21.4167 16.0237 21.4167 15.1563 21.4167 14.1666C21.4167 13.1778 21.4167 12.3111 21.4042 11.5416ZM21.3381 18.5448C20.8656 18.5503 20.5886 18.5647 20.3494 18.6026C18.2278 18.9387 16.5638 20.6026 16.2278 22.7243C16.1899 22.9635 16.1755 23.2405 16.17 23.7129C17.7571 23.6035 18.6735 23.3527 19.3728 22.8446C19.7938 22.5388 20.164 22.1686 20.4698 21.7477C20.9779 21.0483 21.2287 20.1319 21.3381 18.5448Z" fill="white"/>
<path d="M7.41675 15.3333C7.41675 14.85 7.8085 14.4583 8.29175 14.4583H15.2917C15.775 14.4583 16.1667 14.85 16.1667 15.3333C16.1667 15.8165 15.775 16.2083 15.2917 16.2083H8.29175C7.8085 16.2083 7.41675 15.8165 7.41675 15.3333Z" fill="#0074E0"/>
</svg>
