<svg width="26" height="25" viewBox="0 0 26 25" fill="none" xmlns="http://www.w3.org/2000/svg">
<path fill-rule="evenodd" clip-rule="evenodd" d="M6.4637 3.79319C3.35242 6.05367 1.79678 7.18391 1.18579 8.85344C1.13677 8.98736 1.09269 9.12304 1.05362 9.2602C0.5666 10.97 1.1608 12.7988 2.34921 16.4563C3.53761 20.1138 4.13182 21.9426 5.53082 23.0396C5.64305 23.1276 5.75846 23.2115 5.87684 23.291C7.35246 24.2825 9.27534 24.2825 13.1211 24.2825C16.9669 24.2825 18.8897 24.2825 20.3654 23.291C20.4837 23.2115 20.5992 23.1276 20.7114 23.0396C22.1104 21.9426 22.7046 20.1138 23.893 16.4563C25.0814 12.7988 25.6756 10.97 25.1886 9.2602C25.1495 9.12304 25.1054 8.98736 25.0564 8.85344C24.4454 7.18392 22.8898 6.05368 19.7785 3.7932C16.6672 1.53272 15.1116 0.40247 13.335 0.337295C13.1924 0.332067 13.0498 0.332067 12.9072 0.337295C11.1306 0.40247 9.57499 1.53271 6.4637 3.79319ZM10.7878 17.9146C10.3045 17.9146 9.91276 18.3064 9.91276 18.7896C9.91276 19.2729 10.3045 19.6646 10.7878 19.6646H15.4544C15.9377 19.6646 16.3294 19.2729 16.3294 18.7896C16.3294 18.3064 15.9377 17.9146 15.4544 17.9146H10.7878Z" fill="#0074E0"/>
</svg>
