<svg width="26" height="24" viewBox="0 0 26 24" fill="none" xmlns="http://www.w3.org/2000/svg">
<path d="M16.9628 0.63347C16.2562 0.625 15.4779 0.625 14.6227 0.625H12.2329C10.0902 0.624991 8.41069 0.624983 7.0782 0.76935C5.71841 0.916674 4.61663 1.22271 3.67592 1.90618C3.10642 2.31995 2.60559 2.82077 2.19182 3.39027C2.01144 3.63854 1.85578 3.90023 1.72192 4.17804C1.28999 5.07442 1.09748 6.11424 1.0037 7.35555C0.910639 8.58734 0.910642 10.0992 0.910645 11.9661V12.0528C0.910635 14.1954 0.910628 15.875 1.05499 17.2074C1.20232 18.5672 1.50836 19.669 2.19182 20.6097C2.60559 21.1792 3.10642 21.6801 3.67592 22.0938C4.61663 22.7773 5.71841 23.0833 7.0782 23.2306C8.41067 23.375 10.0902 23.375 12.2327 23.375H14.6718C16.8144 23.375 18.494 23.375 19.8264 23.2306C21.1862 23.0833 22.288 22.7773 23.2287 22.0938C23.7982 21.6801 24.299 21.1792 24.7128 20.6097C25.3963 19.669 25.7023 18.5672 25.8496 17.2074C25.994 15.875 25.994 14.1955 25.994 12.0529V11.9961C25.994 11.1288 25.994 10.3406 25.9851 9.62595C25.9792 9.14274 25.5826 8.75586 25.0994 8.76184C24.6162 8.76781 24.2293 9.16438 24.2353 9.64759C24.244 10.3503 24.244 11.1283 24.244 12C24.244 14.2068 24.2428 15.7917 24.1098 17.0189C23.9786 18.2298 23.7276 18.9884 23.297 19.5811C22.9912 20.002 22.621 20.3722 22.2001 20.678C21.6074 21.1086 20.8488 21.3596 19.6379 21.4908C18.4107 21.6238 16.8258 21.625 14.619 21.625H12.2856C10.0788 21.625 8.49397 21.6238 7.2667 21.4908C6.0558 21.3596 5.29721 21.1086 4.70454 20.678C4.28361 20.3722 3.91343 20.002 3.6076 19.5811C3.177 18.9884 2.92601 18.2298 2.79481 17.0189C2.66185 15.7917 2.66065 14.2068 2.66065 12C2.66065 10.0923 2.66121 8.64575 2.74873 7.48738C2.78602 6.99373 2.83833 6.56754 2.90881 6.19394L4.63133 7.91645C6.53565 9.8208 8.02803 11.3132 9.34901 12.3211C10.7011 13.3527 11.976 13.9588 13.4523 13.9588C15.705 13.9588 17.5208 12.5406 19.8911 10.2684C20.24 9.93404 20.2517 9.38014 19.9173 9.03128C19.5829 8.68242 19.029 8.6707 18.6802 9.0051C16.2558 11.3289 14.9144 12.2088 13.4523 12.2088C12.5124 12.2088 11.6069 11.8426 10.4105 10.9298C9.19391 10.0015 7.78339 8.59364 5.82145 6.6317L3.60804 4.41829C3.91379 3.99761 4.28381 3.62764 4.70454 3.32196C5.29721 2.89136 6.0558 2.64036 7.2667 2.50917C8.49397 2.3762 10.0788 2.375 12.2856 2.375H14.619C15.4784 2.375 16.2468 2.37501 16.9418 2.38334C17.425 2.38914 17.8215 2.00211 17.8272 1.5189C17.833 1.03568 17.446 0.639263 16.9628 0.63347Z" fill="white"/>
<path fill-rule="evenodd" clip-rule="evenodd" d="M22.785 0.625C21.0131 0.625 19.5767 2.06142 19.5767 3.83333C19.5767 5.60525 21.0131 7.04167 22.785 7.04167C24.5569 7.04167 25.9933 5.60525 25.9933 3.83333C25.9933 2.06142 24.5569 0.625 22.785 0.625ZM21.3267 3.83333C21.3267 3.02792 21.9796 2.375 22.785 2.375C23.5904 2.375 24.2433 3.02792 24.2433 3.83333C24.2433 4.63875 23.5904 5.29167 22.785 5.29167C21.9796 5.29167 21.3267 4.63875 21.3267 3.83333Z" fill="#0074E0"/>
</svg>
