<svg width="20" height="20" viewBox="0 0 20 20" fill="none" xmlns="http://www.w3.org/2000/svg">
<path d="M9.95805 19.9354C4.45822 19.9354 0 15.4772 0 9.97733V3.0067C0 2.21439 0.314745 1.45453 0.874993 0.894281C1.43524 0.334032 2.1951 0.0192871 2.98741 0.0192871H9.46014V4.38788C9.46014 5.38468 9.3994 6.41733 8.8766 7.26576C8.50231 7.87378 8.00163 8.39419 7.40852 8.79169C6.81541 9.18918 6.14374 9.45447 5.43909 9.56955L5.24839 9.60042C5.16977 9.62729 5.10153 9.67807 5.0532 9.74566C5.00488 9.81324 4.9789 9.89425 4.9789 9.97733C4.9789 10.0604 5.00488 10.1414 5.0532 10.209C5.10153 10.2766 5.16977 10.3274 5.24839 10.3542L5.43909 10.3851C6.46866 10.5533 7.41941 11.0406 8.15708 11.7783C8.89475 12.516 9.38208 13.4667 9.55027 14.4963L9.58114 14.687C9.60801 14.7656 9.65879 14.8339 9.72638 14.8822C9.79396 14.9305 9.87496 14.9565 9.95805 14.9565C10.0411 14.9565 10.1221 14.9305 10.1897 14.8822C10.2573 14.8339 10.3081 14.7656 10.335 14.687L10.3658 14.4963C10.4809 13.7916 10.7462 13.12 11.1437 12.5268C11.5412 11.9337 12.0616 11.433 12.6696 11.0588C13.518 10.536 14.5507 10.4752 15.5475 10.4752H19.9041C19.6437 15.7435 15.2906 19.9354 9.95805 19.9354Z" fill="#FECE25"/>
<path d="M19.9166 9.47943H15.548C14.5512 9.47943 13.5186 9.41869 12.6701 8.89589C12.0069 8.48723 11.4487 7.92895 11.04 7.26576C10.5172 6.41734 10.4565 5.38469 10.4565 4.38789V0.0192922H16.9292C17.7215 0.0192922 18.4814 0.334037 19.0416 0.894286C19.6019 1.45453 19.9166 2.21439 19.9166 3.00671V9.47943Z" fill="#FECE25"/>
</svg>
